%FSLAX24Y24*%
%MOIN*%
G70*
G01*
G75*
%ADD10R,0.2000X0.2000*%
%ADD11R,0.0591X0.0512*%
%ADD12R,0.0217X0.0571*%
%ADD13R,0.0709X0.0630*%
%ADD14R,0.0512X0.0591*%
%ADD15R,0.0197X0.1181*%
%ADD16O,0.0197X0.1181*%
%ADD17O,0.0984X0.0098*%
%ADD18O,0.0098X0.0984*%
%ADD19R,0.0098X0.0984*%
%ADD20O,0.1000X0.0150*%
%ADD21R,0.1000X0.0150*%
%ADD22R,0.0850X0.0421*%
%ADD23R,0.0850X0.0421*%
%ADD24O,0.0850X0.0421*%
%ADD25R,0.1000X0.1969*%
%ADD26R,0.0709X0.0787*%
%ADD27O,0.0709X0.0787*%
%ADD28R,0.0394X0.0276*%
%ADD29R,0.0394X0.0276*%
%ADD30C,0.0500*%
%ADD31C,0.0350*%
%ADD32C,0.0100*%
%ADD33C,0.0200*%
%ADD34C,0.0120*%
%ADD35C,0.0250*%
%ADD36C,0.1000*%
%ADD37C,0.0750*%
%ADD38C,0.2500*%
%ADD39C,0.0600*%
%ADD40R,0.0600X0.0600*%
%ADD41C,0.0550*%
%ADD42R,0.0550X0.0550*%
%ADD43C,0.1750*%
%ADD44C,0.1250*%
%ADD45C,0.0650*%
%ADD46R,0.0650X0.0650*%
%ADD47C,0.1300*%
%ADD48C,0.0250*%
%ADD49C,0.0450*%
%ADD50C,0.0098*%
%ADD51C,0.0079*%
%ADD52C,0.0010*%
%ADD53C,0.0010*%
%ADD54C,0.0400*%
%ADD55C,0.0080*%
D32*
X52352Y11050D02*
G03*
X52352Y11050I-602J0D01*
G01*
X53309Y17085D02*
G03*
X53309Y18915I0J915D01*
G01*
X50612D02*
G03*
X50612Y17085I0J-915D01*
G01*
X47263Y19875D02*
G03*
X47137Y19875I-63J0D01*
G01*
X40659Y14006D02*
G03*
X40659Y14006I-59J0D01*
G01*
X46859Y17794D02*
G03*
X46859Y17794I-59J0D01*
G01*
X32659Y33006D02*
G03*
X32659Y33006I-59J0D01*
G01*
X50612Y17085D02*
X53309D01*
X50612Y18915D02*
X53309D01*
X48350Y19875D02*
Y26875D01*
X46050D02*
X48350D01*
X46050Y19875D02*
Y26875D01*
Y19875D02*
X47137D01*
X47263D02*
X48350D01*
X16200Y34100D02*
Y38300D01*
X20000Y34100D02*
Y38300D01*
X16200Y34100D02*
X20000D01*
X16200Y38300D02*
X20000D01*
X10000Y30828D02*
Y34372D01*
X15709D01*
Y30828D02*
Y34372D01*
X10000Y30828D02*
X15709D01*
X21900Y22000D02*
X24900D01*
Y19200D02*
Y22000D01*
X21900Y19200D02*
X24900D01*
X21900D02*
Y22000D01*
X39891Y15365D02*
X40206D01*
X39891Y14203D02*
Y15365D01*
X40206Y14203D02*
Y15365D01*
X39891Y14203D02*
X40206D01*
X47194Y16435D02*
X47509D01*
Y17597D01*
X47194Y16435D02*
Y17597D01*
X47509D01*
X31891Y33203D02*
X32206D01*
Y34365D01*
X31891Y33203D02*
Y34365D01*
X32206D01*
X53200Y22000D02*
X54650D01*
X53200Y26710D02*
X54640D01*
X53200Y22000D02*
Y26710D01*
X56240D02*
X58720D01*
X56220Y21970D02*
X58720D01*
Y26710D01*
X51550Y18350D02*
Y18250D01*
X51750Y18050D01*
X51950Y18250D01*
Y18350D01*
X51750Y18050D02*
Y17750D01*
X52150D02*
X52350D01*
X52250D01*
Y18350D01*
X52150Y18250D01*
X46400Y23800D02*
Y23300D01*
X46500Y23200D01*
X46700D01*
X46800Y23300D01*
Y23800D01*
X47000Y23200D02*
X47200D01*
X47100D01*
Y23800D01*
X47000Y23700D01*
X47900Y23800D02*
X47500D01*
Y23500D01*
X47700Y23600D01*
X47800D01*
X47900Y23500D01*
Y23300D01*
X47800Y23200D01*
X47600D01*
X47500Y23300D01*
X46680Y18800D02*
Y18300D01*
X46780Y18200D01*
X46980D01*
X47080Y18300D01*
Y18800D01*
X47280Y18200D02*
X47480D01*
X47380D01*
Y18800D01*
X47280Y18700D01*
X48080Y18200D02*
Y18800D01*
X47780Y18500D01*
X48180D01*
X17350Y36450D02*
Y35950D01*
X17450Y35850D01*
X17650D01*
X17750Y35950D01*
Y36450D01*
X17950Y35850D02*
X18150D01*
X18050D01*
Y36450D01*
X17950Y36350D01*
X18450D02*
X18550Y36450D01*
X18750D01*
X18850Y36350D01*
Y36250D01*
X18750Y36150D01*
X18650D01*
X18750D01*
X18850Y36050D01*
Y35950D01*
X18750Y35850D01*
X18550D01*
X18450Y35950D01*
X50360Y33260D02*
Y32760D01*
X50460Y32660D01*
X50660D01*
X50760Y32760D01*
Y33260D01*
X50960Y32660D02*
X51160D01*
X51060D01*
Y33260D01*
X50960Y33160D01*
X51860Y32660D02*
X51460D01*
X51860Y33060D01*
Y33160D01*
X51760Y33260D01*
X51560D01*
X51460Y33160D01*
X45660Y33310D02*
Y32810D01*
X45760Y32710D01*
X45960D01*
X46060Y32810D01*
Y33310D01*
X46260Y32710D02*
X46460D01*
X46360D01*
Y33310D01*
X46260Y33210D01*
X46760Y32710D02*
X46960D01*
X46860D01*
Y33310D01*
X46760Y33210D01*
X32800Y22650D02*
Y22150D01*
X32900Y22050D01*
X33100D01*
X33200Y22150D01*
Y22650D01*
X33400Y22550D02*
X33500Y22650D01*
X33700D01*
X33800Y22550D01*
Y22450D01*
X33700Y22350D01*
X33800Y22250D01*
Y22150D01*
X33700Y22050D01*
X33500D01*
X33400Y22150D01*
Y22250D01*
X33500Y22350D01*
X33400Y22450D01*
Y22550D01*
X33500Y22350D02*
X33700D01*
X14750Y24100D02*
Y24600D01*
X14650Y24700D01*
X14450D01*
X14350Y24600D01*
Y24100D01*
X13850Y24700D02*
Y24100D01*
X14150Y24400D01*
X13750D01*
X22850Y20950D02*
Y20450D01*
X22950Y20350D01*
X23150D01*
X23250Y20450D01*
Y20950D01*
X23850D02*
X23650Y20850D01*
X23450Y20650D01*
Y20450D01*
X23550Y20350D01*
X23750D01*
X23850Y20450D01*
Y20550D01*
X23750Y20650D01*
X23450D01*
X21550Y26350D02*
Y25850D01*
X21650Y25750D01*
X21850D01*
X21950Y25850D01*
Y26350D01*
X22150Y26250D02*
X22250Y26350D01*
X22450D01*
X22550Y26250D01*
Y26150D01*
X22450Y26050D01*
X22350D01*
X22450D01*
X22550Y25950D01*
Y25850D01*
X22450Y25750D01*
X22250D01*
X22150Y25850D01*
X10800Y35200D02*
X10600D01*
X10700D01*
Y34700D01*
X10600Y34600D01*
X10500D01*
X10400Y34700D01*
X11000Y35100D02*
X11100Y35200D01*
X11300D01*
X11400Y35100D01*
Y35000D01*
X11300Y34900D01*
X11200D01*
X11300D01*
X11400Y34800D01*
Y34700D01*
X11300Y34600D01*
X11100D01*
X11000Y34700D01*
X19600Y13900D02*
Y13700D01*
Y13800D01*
X20100D01*
X20200Y13700D01*
Y13600D01*
X20100Y13500D01*
X20200Y14100D02*
X19600D01*
Y14400D01*
X19700Y14500D01*
X19900D01*
X20000Y14400D01*
Y14100D01*
X20200Y14700D02*
Y14900D01*
Y14800D01*
X19600D01*
X19700Y14700D01*
X56650Y24700D02*
X56450D01*
X56550D01*
Y24200D01*
X56450Y24100D01*
X56350D01*
X56250Y24200D01*
X57150Y24100D02*
Y24700D01*
X56850Y24400D01*
X57250D01*
X43000Y32850D02*
X42400D01*
X42600Y33050D01*
X42400Y33250D01*
X43000D01*
X42400Y33750D02*
Y33550D01*
X42500Y33450D01*
X42900D01*
X43000Y33550D01*
Y33750D01*
X42900Y33850D01*
X42500D01*
X42400Y33750D01*
Y34050D02*
X43000D01*
Y34350D01*
X42900Y34449D01*
X42500D01*
X42400Y34350D01*
Y34050D01*
Y35049D02*
Y34649D01*
X43000D01*
Y35049D01*
X42700Y34649D02*
Y34849D01*
X12800Y17550D02*
X12600D01*
X12700D01*
Y17050D01*
X12600Y16950D01*
X12500D01*
X12400Y17050D01*
X13000Y16950D02*
X13200D01*
X13100D01*
Y17550D01*
X13000Y17450D01*
X22800Y35850D02*
X22700Y35950D01*
X22500D01*
X22400Y35850D01*
Y35450D01*
X22500Y35350D01*
X22700D01*
X22800Y35450D01*
X23400Y35950D02*
X23200Y35850D01*
X23000Y35650D01*
Y35450D01*
X23100Y35350D01*
X23300D01*
X23400Y35450D01*
Y35550D01*
X23300Y35650D01*
X23000D01*
X23999Y35950D02*
X23800Y35850D01*
X23600Y35650D01*
Y35450D01*
X23700Y35350D01*
X23900D01*
X23999Y35450D01*
Y35550D01*
X23900Y35650D01*
X23600D01*
X17950Y31800D02*
X17850Y31700D01*
Y31500D01*
X17950Y31400D01*
X18350D01*
X18450Y31500D01*
Y31700D01*
X18350Y31800D01*
X17850Y32400D02*
X17950Y32200D01*
X18150Y32000D01*
X18350D01*
X18450Y32100D01*
Y32300D01*
X18350Y32400D01*
X18250D01*
X18150Y32300D01*
Y32000D01*
X17850Y32999D02*
Y32600D01*
X18150D01*
X18050Y32800D01*
Y32900D01*
X18150Y32999D01*
X18350D01*
X18450Y32900D01*
Y32700D01*
X18350Y32600D01*
X13800Y13450D02*
Y13850D01*
X14000Y14050D01*
X14200Y13850D01*
Y13450D01*
Y13750D01*
X13800D01*
X14400Y13450D02*
Y14050D01*
X14800Y13450D01*
Y14050D01*
X15000D02*
X15399D01*
X15200D01*
Y13450D01*
X15599D02*
Y13550D01*
X15699D01*
Y13450D01*
X15599D01*
X52300Y22400D02*
X52800D01*
X52900Y22500D01*
Y22700D01*
X52800Y22800D01*
X52300D01*
X52400Y23400D02*
X52300Y23300D01*
Y23100D01*
X52400Y23000D01*
X52500D01*
X52600Y23100D01*
Y23300D01*
X52700Y23400D01*
X52800D01*
X52900Y23300D01*
Y23100D01*
X52800Y23000D01*
X52300Y23600D02*
X52900D01*
Y23900D01*
X52800Y23999D01*
X52700D01*
X52600Y23900D01*
Y23600D01*
Y23900D01*
X52500Y23999D01*
X52400D01*
X52300Y23900D01*
Y23600D01*
X52900Y25199D02*
Y24799D01*
X52500Y25199D01*
X52400D01*
X52300Y25099D01*
Y24899D01*
X52400Y24799D01*
X52900Y25399D02*
X52800D01*
Y25499D01*
X52900D01*
Y25399D01*
X52400Y25899D02*
X52300Y25999D01*
Y26199D01*
X52400Y26299D01*
X52800D01*
X52900Y26199D01*
Y25999D01*
X52800Y25899D01*
X52400D01*
X27400Y14450D02*
X27300Y14550D01*
X27100D01*
X27000Y14450D01*
Y14050D01*
X27100Y13950D01*
X27300D01*
X27400Y14050D01*
X27600Y14550D02*
Y13950D01*
Y14250D01*
X27700Y14350D01*
X27900D01*
X28000Y14250D01*
Y13950D01*
X28300Y14350D02*
X28500D01*
X28599Y14250D01*
Y13950D01*
X28300D01*
X28200Y14050D01*
X28300Y14150D01*
X28599D01*
X28799Y13950D02*
Y14350D01*
X28899D01*
X28999Y14250D01*
Y13950D01*
Y14250D01*
X29099Y14350D01*
X29199Y14250D01*
Y13950D01*
X29699D02*
X29499D01*
X29399Y14050D01*
Y14250D01*
X29499Y14350D01*
X29699D01*
X29799Y14250D01*
Y14150D01*
X29399D01*
X29999Y13950D02*
X30199D01*
X30099D01*
Y14550D01*
X29999D01*
X30799Y13950D02*
X30599D01*
X30499Y14050D01*
Y14250D01*
X30599Y14350D01*
X30799D01*
X30899Y14250D01*
Y14150D01*
X30499D01*
X31199Y13950D02*
X31399D01*
X31499Y14050D01*
Y14250D01*
X31399Y14350D01*
X31199D01*
X31099Y14250D01*
Y14050D01*
X31199Y13950D01*
X31698D02*
Y14350D01*
X31998D01*
X32098Y14250D01*
Y13950D01*
X32298D02*
Y14550D01*
X32598D01*
X32698Y14450D01*
Y14250D01*
X32598Y14150D01*
X32298D01*
X33198Y14550D02*
X32998D01*
X32898Y14450D01*
Y14050D01*
X32998Y13950D01*
X33198D01*
X33298Y14050D01*
Y14450D01*
X33198Y14550D01*
X33498D02*
Y13950D01*
X33798D01*
X33898Y14050D01*
Y14450D01*
X33798Y14550D01*
X33498D01*
X41450Y11250D02*
X41350Y11350D01*
X41150D01*
X41050Y11250D01*
Y10850D01*
X41150Y10750D01*
X41350D01*
X41450Y10850D01*
X41650Y11350D02*
Y10750D01*
Y11050D01*
X41750Y11150D01*
X41950D01*
X42050Y11050D01*
Y10750D01*
X42250Y11150D02*
Y10750D01*
Y10950D01*
X42350Y11050D01*
X42450Y11150D01*
X42550D01*
X42849Y10750D02*
X43049D01*
X42949D01*
Y11150D01*
X42849D01*
X43349Y10750D02*
X43649D01*
X43749Y10850D01*
X43649Y10950D01*
X43449D01*
X43349Y11050D01*
X43449Y11150D01*
X43749D01*
X44549Y11350D02*
Y10750D01*
Y11050D01*
X44949D01*
Y11350D01*
Y10750D01*
X45149D02*
X45349D01*
X45249D01*
Y11150D01*
X45149D01*
X45649Y10750D02*
X45948D01*
X46048Y10850D01*
X45948Y10950D01*
X45748D01*
X45649Y11050D01*
X45748Y11150D01*
X46048D01*
X46248D02*
X46648D01*
X46248Y10750D01*
X46648D01*
X46848Y10550D02*
Y11150D01*
X47148D01*
X47248Y11050D01*
Y10850D01*
X47148Y10750D01*
X46848D01*
X47548Y11150D02*
X47748D01*
X47848Y11050D01*
Y10750D01*
X47548D01*
X47448Y10850D01*
X47548Y10950D01*
X47848D01*
X48048Y10750D02*
Y11150D01*
X48348D01*
X48448Y11050D01*
Y10750D01*
X48648D02*
X48947D01*
X49047Y10850D01*
X48947Y10950D01*
X48748D01*
X48648Y11050D01*
X48748Y11150D01*
X49047D01*
X49247Y10750D02*
Y11350D01*
Y10950D02*
X49547Y11150D01*
X49247Y10950D02*
X49547Y10750D01*
X49847D02*
X50047D01*
X49947D01*
Y11150D01*
X49847D01*
X50447Y10650D02*
X50547Y10750D01*
Y10850D01*
X50447D01*
Y10750D01*
X50547D01*
X50447Y10650D01*
X50347Y10550D01*
X51946Y11250D02*
X51847Y11350D01*
X51647D01*
X51547Y11250D01*
Y10850D01*
X51647Y10750D01*
X51847D01*
X51946Y10850D01*
X53146Y10750D02*
X52746D01*
X53146Y11150D01*
Y11250D01*
X53046Y11350D01*
X52846D01*
X52746Y11250D01*
X53346D02*
X53446Y11350D01*
X53646D01*
X53746Y11250D01*
Y10850D01*
X53646Y10750D01*
X53446D01*
X53346Y10850D01*
Y11250D01*
X53946D02*
X54046Y11350D01*
X54246D01*
X54346Y11250D01*
Y10850D01*
X54246Y10750D01*
X54046D01*
X53946Y10850D01*
Y11250D01*
X54546Y11350D02*
X54946D01*
Y11250D01*
X54546Y10850D01*
Y10750D01*
D50*
X47205Y31923D02*
G03*
X47205Y31923I-49J0D01*
G01*
X51905Y31873D02*
G03*
X51905Y31873I-49J0D01*
G01*
D51*
X19332Y32200D02*
G03*
X19332Y32200I-1240J0D01*
G01*
X24440Y35708D02*
G03*
X24440Y35708I-1240J0D01*
G01*
X15250Y24544D02*
G03*
X15250Y24294I0J-125D01*
G01*
X52547Y15213D02*
Y16591D01*
X53453Y15213D02*
Y16591D01*
X52547Y15213D02*
X53453D01*
X50547D02*
Y16591D01*
X51453Y15213D02*
Y16591D01*
X50547Y15213D02*
X51453D01*
X45600Y30634D02*
X46900D01*
X45600Y32366D02*
X46900D01*
Y30634D02*
Y32366D01*
X45600Y30634D02*
Y32366D01*
X57497Y33787D02*
X58403D01*
X57497Y32213D02*
X58403D01*
Y33157D02*
Y33787D01*
Y32213D02*
Y32843D01*
X57497Y33157D02*
Y33787D01*
Y32213D02*
Y32843D01*
X48347Y15813D02*
X49253D01*
Y17191D01*
X48347Y15813D02*
Y17191D01*
X47488Y32424D02*
X48512D01*
X47488Y30573D02*
Y32424D01*
X48512Y30573D02*
Y32424D01*
X44397Y32087D02*
X45303D01*
X44397Y30709D02*
Y32087D01*
X45303Y30709D02*
Y32087D01*
X57497Y31987D02*
X58403D01*
X57497Y30609D02*
Y31987D01*
X58403Y30609D02*
Y31987D01*
X50300Y30584D02*
X51600D01*
X50300Y32316D02*
X51600D01*
Y30584D02*
Y32316D01*
X50300Y30584D02*
Y32316D01*
X52238Y32474D02*
X53262D01*
X52238Y30623D02*
Y32474D01*
X53262Y30623D02*
Y32474D01*
X49097Y32037D02*
X50003D01*
X49097Y30659D02*
Y32037D01*
X50003Y30659D02*
Y32037D01*
X51987Y24547D02*
Y25453D01*
X50413Y24547D02*
Y25453D01*
X51357Y24547D02*
X51987D01*
X50413D02*
X51043D01*
X51357Y25453D02*
X51987D01*
X50413D02*
X51043D01*
X50413Y25747D02*
Y26653D01*
X51987Y25747D02*
Y26653D01*
X50413D02*
X51043D01*
X51357D02*
X51987D01*
X50413Y25747D02*
X51043D01*
X51357D02*
X51987D01*
X25987Y15947D02*
Y16853D01*
X24413Y15947D02*
Y16853D01*
X25357Y15947D02*
X25987D01*
X24413D02*
X25043D01*
X25357Y16853D02*
X25987D01*
X24413D02*
X25043D01*
X25987Y14747D02*
Y15653D01*
X24413Y14747D02*
Y15653D01*
X25357Y14747D02*
X25987D01*
X24413D02*
X25043D01*
X25357Y15653D02*
X25987D01*
X24413D02*
X25043D01*
X25987Y17347D02*
Y18253D01*
X24413Y17347D02*
Y18253D01*
X25357Y17347D02*
X25987D01*
X24413D02*
X25043D01*
X25357Y18253D02*
X25987D01*
X24413D02*
X25043D01*
X36147Y15587D02*
X37053D01*
X36147Y14013D02*
X37053D01*
Y14957D02*
Y15587D01*
Y14013D02*
Y14643D01*
X36147Y14957D02*
Y15587D01*
Y14013D02*
Y14643D01*
X25987Y13547D02*
Y14453D01*
X24413Y13547D02*
Y14453D01*
X25357Y13547D02*
X25987D01*
X24413D02*
X25043D01*
X25357Y14453D02*
X25987D01*
X24413D02*
X25043D01*
X41013Y13947D02*
Y14853D01*
X42587Y13947D02*
Y14853D01*
X41013D02*
X41643D01*
X41957D02*
X42587D01*
X41013Y13947D02*
X41643D01*
X41957D02*
X42587D01*
X39787Y31947D02*
Y32853D01*
X38213Y31947D02*
Y32853D01*
X39157Y31947D02*
X39787D01*
X38213D02*
X38843D01*
X39157Y32853D02*
X39787D01*
X38213D02*
X38843D01*
X39787Y33147D02*
Y34053D01*
X38213Y33147D02*
Y34053D01*
X39157Y33147D02*
X39787D01*
X38213D02*
X38843D01*
X39157Y34053D02*
X39787D01*
X38213D02*
X38843D01*
X39787Y34347D02*
Y35253D01*
X38213Y34347D02*
Y35253D01*
X39157Y34347D02*
X39787D01*
X38213D02*
X38843D01*
X39157Y35253D02*
X39787D01*
X38213D02*
X38843D01*
X40100Y32100D02*
Y34017D01*
Y32100D02*
Y35100D01*
X42100Y32100D02*
Y35100D01*
X40100D02*
X42100D01*
X40100Y32100D02*
X42100D01*
X34787Y32747D02*
Y33653D01*
X33213Y32747D02*
Y33653D01*
X34157Y32747D02*
X34787D01*
X33213D02*
X33843D01*
X34157Y33653D02*
X34787D01*
X33213D02*
X33843D01*
X34987Y33947D02*
Y34853D01*
X33413Y33947D02*
Y34853D01*
X34357Y33947D02*
X34987D01*
X33413D02*
X34043D01*
X34357Y34853D02*
X34987D01*
X33413D02*
X34043D01*
X42587Y26347D02*
Y27253D01*
X41013Y26347D02*
Y27253D01*
X41957Y26347D02*
X42587D01*
X41013D02*
X41643D01*
X41957Y27253D02*
X42587D01*
X41013D02*
X41643D01*
X42587Y17547D02*
Y18453D01*
X41013Y17547D02*
Y18453D01*
X41957Y17547D02*
X42587D01*
X41013D02*
X41643D01*
X41957Y18453D02*
X42587D01*
X41013D02*
X41643D01*
X20747Y20013D02*
X21653D01*
X20747Y21587D02*
X21653D01*
X20747Y20013D02*
Y20643D01*
Y20957D02*
Y21587D01*
X21653Y20013D02*
Y20643D01*
Y20957D02*
Y21587D01*
X17147Y19787D02*
X18053D01*
X17147Y18409D02*
Y19787D01*
X18053Y18409D02*
Y19787D01*
X15947Y18187D02*
X16853D01*
X15947Y16809D02*
Y18187D01*
X16853Y16809D02*
Y18187D01*
X15947Y16587D02*
X16853D01*
X15947Y15209D02*
Y16587D01*
X16853Y15209D02*
Y16587D01*
X15947Y19787D02*
X16853D01*
X15947Y18409D02*
Y19787D01*
X16853Y18409D02*
Y19787D01*
X24213Y29547D02*
Y30453D01*
Y29547D02*
X25591D01*
X24213Y30453D02*
X25591D01*
X20187Y28947D02*
Y29853D01*
X18809D02*
X20187D01*
X18809Y28947D02*
X20187D01*
X17747Y26213D02*
X18653D01*
Y27591D01*
X17747Y26213D02*
Y27591D01*
X17387Y25747D02*
Y26653D01*
X16009D02*
X17387D01*
X16009Y25747D02*
X17387D01*
X18387Y28147D02*
Y29053D01*
X17009D02*
X18387D01*
X17009Y28147D02*
X18387D01*
X14147Y29387D02*
X15053D01*
X14147Y28009D02*
Y29387D01*
X15053Y28009D02*
Y29387D01*
X17387Y26947D02*
Y27853D01*
X16009D02*
X17387D01*
X16009Y26947D02*
X17387D01*
X16787Y28147D02*
Y29053D01*
X15409D02*
X16787D01*
X15409Y28147D02*
X16787D01*
X17087Y21347D02*
Y22253D01*
X15709D02*
X17087D01*
X15709Y21347D02*
X17087D01*
Y22547D02*
Y23453D01*
X15709D02*
X17087D01*
X15709Y22547D02*
X17087D01*
X17297Y23387D02*
X18203D01*
X17297Y22009D02*
Y23387D01*
X18203Y22009D02*
Y23387D01*
X22500Y13500D02*
Y17500D01*
X20500Y13500D02*
Y17500D01*
Y13500D02*
X22500D01*
X20500Y17500D02*
X22500D01*
X18447Y23487D02*
X19353D01*
X18447Y22109D02*
Y23487D01*
X19353Y22109D02*
Y23487D01*
X18147Y12213D02*
X19053D01*
X18147Y13787D02*
X19053D01*
X18147Y12213D02*
Y12843D01*
Y13157D02*
Y13787D01*
X19053Y12213D02*
Y12843D01*
Y13157D02*
Y13787D01*
X17297Y20413D02*
X18203D01*
Y21791D01*
X17297Y20413D02*
Y21791D01*
X18147Y14013D02*
X19053D01*
X18147Y15587D02*
X19053D01*
X18147Y14013D02*
Y14643D01*
Y14957D02*
Y15587D01*
X19053Y14013D02*
Y14643D01*
Y14957D02*
Y15587D01*
X18147Y15813D02*
X19053D01*
X18147Y17387D02*
X19053D01*
X18147Y15813D02*
Y16443D01*
Y16757D02*
Y17387D01*
X19053Y15813D02*
Y16443D01*
Y16757D02*
Y17387D01*
X19800Y32200D02*
X20200D01*
X20000Y32000D02*
Y32400D01*
X23200Y33600D02*
Y34000D01*
X23000Y33800D02*
X23400D01*
X15250Y24544D02*
Y24681D01*
Y24157D02*
Y24294D01*
X13250Y24157D02*
X15250D01*
X13250D02*
Y24681D01*
X15250D01*
X23080Y27697D02*
X23783Y26994D01*
Y24378D02*
Y26994D01*
X20464Y24378D02*
X23783D01*
X20464D02*
Y27697D01*
X23080D01*
X29250Y10300D02*
X40000D01*
X29250Y13700D02*
X40000D01*
X27000D02*
X29250D01*
X27000Y10300D02*
Y13700D01*
Y10300D02*
X29250D01*
X40000D02*
Y13700D01*
X28821Y17103D02*
X38721D01*
Y27705D01*
X28119D02*
X38721D01*
X28119Y17806D02*
Y27705D01*
Y17806D02*
X28821Y17103D01*
X6493Y15310D02*
Y19090D01*
X9997Y14739D02*
Y19661D01*
Y20113D02*
X15548D01*
X9997Y19661D02*
Y20113D01*
X6493Y19661D02*
X9997D01*
X6493Y19090D02*
Y19661D01*
X1808Y19090D02*
X6493D01*
X1808Y15310D02*
Y19090D01*
Y15310D02*
X6493D01*
Y14739D02*
Y15310D01*
Y14739D02*
X9997D01*
Y14287D02*
Y14739D01*
Y14287D02*
X15548D01*
Y20113D01*
D52*
X3816Y17200D02*
G03*
X3816Y17200I-394J0D01*
G01*
X10469Y14877D02*
Y19523D01*
X9249Y19661D02*
X9643Y14739D01*
X8855Y19661D02*
X9249Y14739D01*
X8461Y19661D02*
X8855Y14739D01*
X8068Y19661D02*
X8461Y14739D01*
X7674Y19661D02*
X8068Y14739D01*
X7280Y19661D02*
X7674Y14739D01*
X6887Y19661D02*
X7280Y14739D01*
X6493Y19661D02*
X6887Y14739D01*
D53*
X1808Y15310D02*
Y19090D01*
Y15310D02*
X6493D01*
Y19090D01*
X1808D02*
X6493D01*
Y19661D01*
X9997D01*
Y14739D02*
Y19661D01*
X6493Y14739D02*
X9997D01*
X6493D02*
Y15310D01*
X9997Y19661D02*
Y20113D01*
X15548D01*
Y14287D02*
Y20113D01*
X9997Y14287D02*
X15548D01*
X9997D02*
Y14739D01*
X10469Y14877D02*
X13619D01*
Y19523D01*
X10469D02*
X13619D01*
D54*
X11029Y22523D02*
X10839Y22332D01*
X10746Y22046D01*
X10748Y21665D01*
X10845Y21380D01*
X11036Y21190D01*
X11227Y21191D01*
X11416Y21288D01*
X11511Y21383D01*
X11605Y21574D01*
X11792Y22147D01*
X11887Y22338D01*
X11981Y22434D01*
X12171Y22530D01*
X12457Y22531D01*
X12648Y22342D01*
X12745Y22057D01*
X12747Y21676D01*
X12654Y21390D01*
X12464Y21198D01*
X11404Y23449D02*
X11501Y23259D01*
X11692Y23070D01*
X11978Y22976D01*
X12169Y22977D01*
X12454Y23074D01*
X12643Y23266D01*
X12737Y23457D01*
X12736Y23742D01*
X12639Y23932D01*
X12448Y24122D01*
X12162Y24215D01*
X11971Y24214D01*
X11686Y24117D01*
X11497Y23926D01*
X11403Y23735D01*
X11404Y23449D01*
X10731Y24645D02*
X12731Y24656D01*
X10731Y24645D02*
X10726Y25502D01*
X10820Y25788D01*
X10915Y25884D01*
X11104Y25980D01*
X11295Y25981D01*
X11486Y25887D01*
X11582Y25793D01*
X11678Y25507D01*
X11683Y24650D01*
X11679Y25317D02*
X12723Y25989D01*
X12712Y27960D02*
X10717Y27187D01*
X12721Y26437D01*
X12052Y26719D02*
X12047Y27671D01*
X10710Y28416D02*
X12709Y28427D01*
X10710Y28416D02*
X10706Y29082D01*
X10800Y29368D01*
X10989Y29560D01*
X11179Y29656D01*
X11464Y29753D01*
X11940Y29756D01*
X12226Y29662D01*
X12417Y29568D01*
X12609Y29379D01*
X12706Y29093D01*
X12709Y28427D01*
D55*
X40400Y35400D02*
Y35233D01*
Y35317D01*
X40900D01*
X40817Y35400D01*
X41400Y35267D02*
Y35600D01*
X41733Y35267D01*
X41817D01*
X41900Y35350D01*
Y35517D01*
X41817Y35600D01*
X40900Y31667D02*
Y32000D01*
X40650D01*
X40733Y31833D01*
Y31750D01*
X40650Y31667D01*
X40483D01*
X40400Y31750D01*
Y31917D01*
X40483Y32000D01*
X41900Y31667D02*
X41817Y31833D01*
X41650Y32000D01*
X41483D01*
X41400Y31917D01*
Y31750D01*
X41483Y31667D01*
X41567D01*
X41650Y31750D01*
Y32000D01*
X21200Y13333D02*
Y13000D01*
X20867Y13333D01*
X20783D01*
X20700Y13250D01*
Y13083D01*
X20783Y13000D01*
X22200Y13200D02*
Y13367D01*
Y13283D01*
X21700D01*
X21783Y13200D01*
X21700Y17600D02*
Y17933D01*
X21783D01*
X22117Y17600D01*
X22200D01*
X20783D02*
X20700Y17683D01*
Y17850D01*
X20783Y17933D01*
X20867D01*
X20950Y17850D01*
X21033Y17933D01*
X21117D01*
X21200Y17850D01*
Y17683D01*
X21117Y17600D01*
X21033D01*
X20950Y17683D01*
X20867Y17600D01*
X20783D01*
X20950Y17683D02*
Y17850D01*
X28333Y12200D02*
X28000D01*
X28333Y12533D01*
Y12617D01*
X28250Y12700D01*
X28083D01*
X28000Y12617D01*
Y11200D02*
X28167D01*
X28083D01*
Y11700D01*
X28000Y11617D01*
X38600Y11200D02*
X38767D01*
X38683D01*
Y11700D01*
X38600Y11617D01*
X39017Y11283D02*
X39100Y11200D01*
X39266D01*
X39350Y11283D01*
Y11617D01*
X39266Y11700D01*
X39100D01*
X39017Y11617D01*
Y11533D01*
X39100Y11450D01*
X39350D01*
X38933Y12200D02*
X38600D01*
X38933Y12533D01*
Y12617D01*
X38850Y12700D01*
X38683D01*
X38600Y12617D01*
X39100D02*
X39183Y12700D01*
X39350D01*
X39433Y12617D01*
Y12283D01*
X39350Y12200D01*
X39183D01*
X39100Y12283D01*
Y12617D01*
M02*
