%FSLAX24Y24*%
%MOIN*%
G70*
G01*
G75*
%ADD10R,0.2000X0.2000*%
%ADD11R,0.0591X0.0512*%
%ADD12R,0.0217X0.0571*%
%ADD13R,0.0709X0.0630*%
%ADD14R,0.0512X0.0591*%
%ADD15R,0.0197X0.1181*%
%ADD16O,0.0197X0.1181*%
%ADD17O,0.0984X0.0098*%
%ADD18O,0.0098X0.0984*%
%ADD19R,0.0098X0.0984*%
%ADD20O,0.1000X0.0150*%
%ADD21R,0.1000X0.0150*%
%ADD22R,0.0850X0.0421*%
%ADD23R,0.0850X0.0421*%
%ADD24O,0.0850X0.0421*%
%ADD25R,0.1000X0.1969*%
%ADD26R,0.0709X0.0787*%
%ADD27O,0.0709X0.0787*%
%ADD28R,0.0394X0.0276*%
%ADD29R,0.0394X0.0276*%
%ADD30C,0.0500*%
%ADD31C,0.0350*%
%ADD32C,0.0100*%
%ADD33C,0.0200*%
%ADD34C,0.0120*%
%ADD35C,0.0250*%
%ADD36C,0.1000*%
%ADD37C,0.0750*%
%ADD38C,0.2500*%
%ADD39C,0.0600*%
%ADD40R,0.0600X0.0600*%
%ADD41C,0.0550*%
%ADD42R,0.0550X0.0550*%
%ADD43C,0.1750*%
%ADD44C,0.1250*%
%ADD45C,0.0650*%
%ADD46R,0.0650X0.0650*%
%ADD47C,0.1300*%
%ADD48C,0.0250*%
%ADD49C,0.0450*%
%ADD50C,0.0098*%
%ADD51C,0.0079*%
%ADD52C,0.0010*%
%ADD53C,0.0010*%
%ADD54C,0.0400*%
%ADD55C,0.0080*%
%ADD56R,0.2060X0.2060*%
%ADD57R,0.0651X0.0572*%
%ADD58R,0.0277X0.0631*%
%ADD59R,0.0769X0.0690*%
%ADD60R,0.0572X0.0651*%
%ADD61R,0.0257X0.1241*%
%ADD62O,0.0257X0.1241*%
%ADD63O,0.1044X0.0158*%
%ADD64O,0.0158X0.1044*%
%ADD65R,0.0158X0.1044*%
%ADD66O,0.1060X0.0210*%
%ADD67R,0.1060X0.0210*%
%ADD68R,0.0910X0.0481*%
%ADD69R,0.0910X0.0481*%
%ADD70O,0.0910X0.0481*%
%ADD71R,0.1060X0.2029*%
%ADD72R,0.0769X0.0847*%
%ADD73O,0.0769X0.0847*%
%ADD74R,0.0454X0.0336*%
%ADD75R,0.0454X0.0336*%
%ADD76C,0.2560*%
%ADD77C,0.0660*%
%ADD78R,0.0660X0.0660*%
%ADD79C,0.0610*%
%ADD80R,0.0610X0.0610*%
%ADD81C,0.1810*%
%ADD82C,0.1310*%
%ADD83C,0.0710*%
%ADD84R,0.0710X0.0710*%
%ADD85C,0.1360*%
%ADD86C,0.0310*%
%ADD87C,0.0510*%
D57*
X22600Y31174D02*
D03*
Y30426D02*
D03*
X16000Y21026D02*
D03*
Y21774D02*
D03*
X13400Y28974D02*
D03*
Y28226D02*
D03*
X14600Y28974D02*
D03*
Y28226D02*
D03*
Y24226D02*
D03*
Y24974D02*
D03*
X13400Y24226D02*
D03*
Y24974D02*
D03*
X34400Y21574D02*
D03*
Y20826D02*
D03*
X32600Y21574D02*
D03*
Y20826D02*
D03*
X29581Y16626D02*
D03*
Y17374D02*
D03*
X34600Y25774D02*
D03*
Y25026D02*
D03*
X36400Y25774D02*
D03*
Y25026D02*
D03*
X36600Y16826D02*
D03*
Y17574D02*
D03*
X35683Y18626D02*
D03*
Y19374D02*
D03*
X22400Y20626D02*
D03*
Y21374D02*
D03*
X32400Y18626D02*
D03*
Y19374D02*
D03*
X23600Y21426D02*
D03*
Y22174D02*
D03*
X20800Y22026D02*
D03*
Y22774D02*
D03*
X22600Y28826D02*
D03*
Y29574D02*
D03*
X31050Y30826D02*
D03*
Y31574D02*
D03*
X34550Y30826D02*
D03*
Y31574D02*
D03*
X38200Y30826D02*
D03*
Y31574D02*
D03*
X27000Y30426D02*
D03*
Y31174D02*
D03*
X29778Y27426D02*
D03*
Y28174D02*
D03*
X37200Y27426D02*
D03*
Y28174D02*
D03*
X28400Y20026D02*
D03*
Y20774D02*
D03*
X32600Y23574D02*
D03*
Y22826D02*
D03*
D58*
X25226Y30377D02*
D03*
X25974D02*
D03*
Y31223D02*
D03*
X25600D02*
D03*
X25226D02*
D03*
X20826Y30377D02*
D03*
X21574D02*
D03*
Y31223D02*
D03*
X21200D02*
D03*
X20826D02*
D03*
X36526Y30827D02*
D03*
X37274D02*
D03*
Y31673D02*
D03*
X36900D02*
D03*
X36526D02*
D03*
X32976Y30777D02*
D03*
X33724D02*
D03*
Y31623D02*
D03*
X33350D02*
D03*
X32976D02*
D03*
X29476D02*
D03*
X29850D02*
D03*
X30224D02*
D03*
Y30777D02*
D03*
X29476D02*
D03*
D59*
X19400Y31351D02*
D03*
Y30249D02*
D03*
X32150Y30649D02*
D03*
Y31751D02*
D03*
X28650D02*
D03*
Y30649D02*
D03*
X35700Y30699D02*
D03*
Y31801D02*
D03*
X23800Y31351D02*
D03*
Y30249D02*
D03*
D60*
X16174Y27400D02*
D03*
X15426D02*
D03*
X34426Y23000D02*
D03*
X35174D02*
D03*
X38974Y19800D02*
D03*
X38226D02*
D03*
X37374Y21600D02*
D03*
X36626D02*
D03*
X37374Y20000D02*
D03*
X36626D02*
D03*
X29826Y19400D02*
D03*
X30574D02*
D03*
X29626Y20731D02*
D03*
X30374D02*
D03*
X29626Y23200D02*
D03*
X30374D02*
D03*
X37374Y24000D02*
D03*
X36626D02*
D03*
X24226Y24600D02*
D03*
X24974D02*
D03*
X18026Y26200D02*
D03*
X18774D02*
D03*
X18026Y25000D02*
D03*
X18774D02*
D03*
X45826Y26600D02*
D03*
X46574D02*
D03*
X45826Y30000D02*
D03*
X46574D02*
D03*
X45826Y22800D02*
D03*
X46574D02*
D03*
X45826Y21600D02*
D03*
X46574D02*
D03*
X45826Y24200D02*
D03*
X46574D02*
D03*
X45826Y25400D02*
D03*
X46574D02*
D03*
X48174Y23600D02*
D03*
X47426D02*
D03*
X48174Y22200D02*
D03*
X47426D02*
D03*
X28626Y25652D02*
D03*
X29374D02*
D03*
X31774Y25800D02*
D03*
X31026D02*
D03*
X38226Y25061D02*
D03*
X38974D02*
D03*
D76*
X56750Y12000D02*
D03*
X12000D02*
D03*
Y36750D02*
D03*
X56750D02*
D03*
D77*
X41600Y32600D02*
D03*
X40600D02*
D03*
X41600Y33600D02*
D03*
X40600D02*
D03*
X41600Y34600D02*
D03*
X21000Y17000D02*
D03*
X22000D02*
D03*
X21000Y16000D02*
D03*
X22000D02*
D03*
X21000Y15000D02*
D03*
X22000D02*
D03*
X21000Y14000D02*
D03*
X52921Y18000D02*
D03*
X51000D02*
D03*
X38000Y12400D02*
D03*
Y11400D02*
D03*
X37000Y12400D02*
D03*
Y11400D02*
D03*
X36000Y12400D02*
D03*
Y11400D02*
D03*
X35000Y12400D02*
D03*
Y11400D02*
D03*
X34000Y12400D02*
D03*
Y11400D02*
D03*
X33000Y12400D02*
D03*
Y11400D02*
D03*
X32000Y12400D02*
D03*
Y11400D02*
D03*
X31000Y12400D02*
D03*
Y11400D02*
D03*
X30000Y12400D02*
D03*
Y11400D02*
D03*
X29000Y12400D02*
D03*
X14800Y16216D02*
D03*
D78*
X40600Y34600D02*
D03*
X22000Y14000D02*
D03*
X29000Y11400D02*
D03*
X14800Y17200D02*
D03*
D79*
X18584Y32200D02*
D03*
X23200Y35216D02*
D03*
D80*
X17600Y32200D02*
D03*
X23200Y36200D02*
D03*
D81*
X15394Y32600D02*
D03*
X14213Y30750D02*
D03*
X13032Y32600D02*
D03*
D82*
X55450Y26710D02*
D03*
Y21970D02*
D03*
D83*
X54390Y24850D02*
D03*
Y23850D02*
D03*
X53600D02*
D03*
D84*
Y24850D02*
D03*
D85*
X12792Y15192D02*
D03*
Y19208D02*
D03*
D86*
X16400Y15426D02*
D03*
X48000Y31951D02*
D03*
X52750Y32001D02*
D03*
X49550Y31624D02*
D03*
X51000Y15626D02*
D03*
X46800Y17400D02*
D03*
X32100Y33800D02*
D03*
X22400Y21400D02*
D03*
X50826Y26200D02*
D03*
X27150Y27800D02*
D03*
X24826Y14000D02*
D03*
X27200Y29600D02*
D03*
X32976Y30777D02*
D03*
X39000Y31600D02*
D03*
Y27800D02*
D03*
X40200Y23800D02*
D03*
X41100Y23500D02*
D03*
X40600Y23000D02*
D03*
X42150Y26824D02*
D03*
Y31900D02*
D03*
X29476Y30777D02*
D03*
X23000Y18750D02*
D03*
X21850Y22250D02*
D03*
X29600Y13400D02*
D03*
X24826Y16400D02*
D03*
X25600Y28000D02*
D03*
X26550Y28900D02*
D03*
X26500Y18050D02*
D03*
X26250Y29200D02*
D03*
Y18300D02*
D03*
X25950Y18550D02*
D03*
Y29500D02*
D03*
X18650Y29700D02*
D03*
X16674Y21800D02*
D03*
X12976Y24974D02*
D03*
X21800Y26950D02*
D03*
X18900Y22050D02*
D03*
X29581Y17400D02*
D03*
X28550Y19943D02*
D03*
Y25652D02*
D03*
X29778Y27422D02*
D03*
X38250Y25061D02*
D03*
X38226Y19800D02*
D03*
X36600Y17574D02*
D03*
X40600Y15148D02*
D03*
X30950Y14650D02*
D03*
X32550Y14600D02*
D03*
X24826Y17800D02*
D03*
X26400Y17250D02*
D03*
Y15700D02*
D03*
X18600Y16974D02*
D03*
X45900Y22000D02*
D03*
X46000Y25150D02*
D03*
X44850Y31674D02*
D03*
X46250Y32800D02*
D03*
Y32500D02*
D03*
X50950Y32900D02*
D03*
Y32550D02*
D03*
X57950Y30826D02*
D03*
X38019Y20731D02*
D03*
X24439Y19746D02*
D03*
X17750Y20826D02*
D03*
X14000Y22250D02*
D03*
X22350Y25300D02*
D03*
X21800D02*
D03*
X21250D02*
D03*
X28258Y28408D02*
D03*
X22900Y26950D02*
D03*
X20500Y28400D02*
D03*
X21250Y26950D02*
D03*
X22900Y25300D02*
D03*
X29000Y18000D02*
D03*
X28974Y24274D02*
D03*
X28997Y19353D02*
D03*
X31550Y18000D02*
D03*
X30172Y17972D02*
D03*
X28971Y21321D02*
D03*
X28998Y22502D02*
D03*
X31150Y29350D02*
D03*
X33518Y17982D02*
D03*
X35290Y27160D02*
D03*
X34050Y27200D02*
D03*
X35250Y17950D02*
D03*
X38000Y18000D02*
D03*
X38002Y22502D02*
D03*
X38002Y25652D02*
D03*
X37950Y27100D02*
D03*
X38017Y23683D02*
D03*
X48200Y20750D02*
D03*
Y21700D02*
D03*
X48050Y25000D02*
D03*
X48200Y22750D02*
D03*
X48174Y23624D02*
D03*
X53000Y15626D02*
D03*
X48800Y16226D02*
D03*
X14600Y28226D02*
D03*
X16226Y27400D02*
D03*
X15926Y21800D02*
D03*
X41450Y18024D02*
D03*
Y21650D02*
D03*
X43950Y14400D02*
D03*
Y23300D02*
D03*
X43000Y22000D02*
D03*
Y19000D02*
D03*
X44350Y21750D02*
D03*
Y16700D02*
D03*
X47300Y22250D02*
D03*
Y30000D02*
D03*
Y23250D02*
D03*
X46624Y17976D02*
D03*
Y31077D02*
D03*
Y21500D02*
D03*
Y24250D02*
D03*
Y25500D02*
D03*
X51574Y25000D02*
D03*
X35150Y21300D02*
D03*
X31900Y20800D02*
D03*
X31800Y23600D02*
D03*
X35200D02*
D03*
X32650Y27000D02*
D03*
X35800Y24250D02*
D03*
X37234Y27426D02*
D03*
X31200Y20200D02*
D03*
X35700Y20100D02*
D03*
X35800Y20750D02*
D03*
X31250Y24200D02*
D03*
X36550Y20000D02*
D03*
X35683Y19417D02*
D03*
X30483Y23683D02*
D03*
X30481Y20731D02*
D03*
X32337Y19437D02*
D03*
X35800Y25000D02*
D03*
X31900Y27400D02*
D03*
Y26300D02*
D03*
X30500Y19450D02*
D03*
X36500Y21600D02*
D03*
X36526Y24274D02*
D03*
X21435Y22715D02*
D03*
X18870Y26530D02*
D03*
X18864Y26136D02*
D03*
X18857Y25743D02*
D03*
X20844Y22706D02*
D03*
Y29956D02*
D03*
X22813Y29737D02*
D03*
X22419Y29731D02*
D03*
X23000Y22200D02*
D03*
X25215Y24561D02*
D03*
X25209Y26333D02*
D03*
X21800Y26400D02*
D03*
X22350D02*
D03*
Y25850D02*
D03*
X21800D02*
D03*
X22350Y26950D02*
D03*
X22900Y26400D02*
D03*
Y25850D02*
D03*
X21250D02*
D03*
Y26400D02*
D03*
D87*
X37274Y36176D02*
D03*
X36526Y36174D02*
D03*
X33724Y36176D02*
D03*
X32976D02*
D03*
X30224D02*
D03*
X29476D02*
D03*
X25226Y36174D02*
D03*
X25974Y36176D02*
D03*
X20826Y36174D02*
D03*
X21574Y36176D02*
D03*
M02*
