%FSLAX24Y24*%
%MOIN*%
G70*
G01*
G75*
%ADD10R,0.2000X0.2000*%
%ADD11R,0.0591X0.0512*%
%ADD12R,0.0217X0.0571*%
%ADD13R,0.0709X0.0630*%
%ADD14R,0.0512X0.0591*%
%ADD15R,0.0197X0.1181*%
%ADD16O,0.0197X0.1181*%
%ADD17O,0.0984X0.0098*%
%ADD18O,0.0098X0.0984*%
%ADD19R,0.0098X0.0984*%
%ADD20O,0.1000X0.0150*%
%ADD21R,0.1000X0.0150*%
%ADD22R,0.0850X0.0421*%
%ADD23R,0.0850X0.0421*%
%ADD24O,0.0850X0.0421*%
%ADD25R,0.1000X0.1969*%
%ADD26R,0.0709X0.0787*%
%ADD27O,0.0709X0.0787*%
%ADD28R,0.0394X0.0276*%
%ADD29R,0.0394X0.0276*%
%ADD30C,0.0500*%
%ADD31C,0.0350*%
%ADD32C,0.0100*%
%ADD33C,0.0200*%
%ADD34C,0.0120*%
%ADD35C,0.0250*%
%ADD36C,0.1000*%
%ADD37C,0.0750*%
%ADD38C,0.2500*%
%ADD39C,0.0600*%
%ADD40R,0.0600X0.0600*%
%ADD41C,0.0550*%
%ADD42R,0.0550X0.0550*%
%ADD43C,0.1750*%
%ADD44C,0.1250*%
%ADD45C,0.0650*%
%ADD46R,0.0650X0.0650*%
%ADD47C,0.1300*%
%ADD48C,0.0250*%
%ADD49C,0.0450*%
%ADD50C,0.0098*%
%ADD51C,0.0079*%
%ADD52C,0.0010*%
%ADD53C,0.0010*%
%ADD54C,0.0400*%
%ADD55C,0.0080*%
%ADD56R,0.2060X0.2060*%
%ADD57R,0.0651X0.0572*%
%ADD58R,0.0277X0.0631*%
%ADD59R,0.0769X0.0690*%
%ADD60R,0.0572X0.0651*%
%ADD61R,0.0257X0.1241*%
%ADD62O,0.0257X0.1241*%
%ADD63O,0.1044X0.0158*%
%ADD64O,0.0158X0.1044*%
%ADD65R,0.0158X0.1044*%
%ADD66O,0.1060X0.0210*%
%ADD67R,0.1060X0.0210*%
%ADD68R,0.0910X0.0481*%
%ADD69R,0.0910X0.0481*%
%ADD70O,0.0910X0.0481*%
%ADD71R,0.1060X0.2029*%
%ADD72R,0.0769X0.0847*%
%ADD73O,0.0769X0.0847*%
%ADD74R,0.0454X0.0336*%
%ADD75R,0.0454X0.0336*%
%ADD76C,0.2560*%
%ADD77C,0.0660*%
%ADD78R,0.0660X0.0660*%
%ADD79C,0.0610*%
%ADD80R,0.0610X0.0610*%
%ADD81C,0.1810*%
%ADD82C,0.1310*%
%ADD83C,0.0710*%
%ADD84R,0.0710X0.0710*%
%ADD85C,0.1360*%
%ADD86C,0.0310*%
%ADD87C,0.0510*%
%ADD88C,0.0060*%
D32*
X59900Y38750D02*
X60100D01*
X59900Y10000D02*
X60100D01*
X60000Y38750D02*
X60200Y38150D01*
X59800D02*
X60000Y38750D01*
Y10000D02*
X60200Y10600D01*
X59800D02*
X60000Y10000D01*
Y27184D02*
Y38750D01*
Y10000D02*
Y21566D01*
X58750Y8900D02*
Y9100D01*
X10000Y8900D02*
Y9100D01*
X58150Y8800D02*
X58750Y9000D01*
X58150Y9200D02*
X58750Y9000D01*
X10000D02*
X10600Y8800D01*
X10000Y9000D02*
X10600Y9200D01*
X37184Y9000D02*
X58750D01*
X10000D02*
X31566D01*
D88*
X60360Y22066D02*
Y21666D01*
X59960Y22066D01*
X59860D01*
X59760Y21966D01*
Y21766D01*
X59860Y21666D01*
Y22266D02*
X59760Y22366D01*
Y22566D01*
X59860Y22666D01*
X59960D01*
X60060Y22566D01*
X60160Y22666D01*
X60260D01*
X60360Y22566D01*
Y22366D01*
X60260Y22266D01*
X60160D01*
X60060Y22366D01*
X59960Y22266D01*
X59860D01*
X60060Y22366D02*
Y22566D01*
X59760Y22865D02*
Y23265D01*
X59860D01*
X60260Y22865D01*
X60360D01*
X59760Y23865D02*
Y23465D01*
X60060D01*
X59960Y23665D01*
Y23765D01*
X60060Y23865D01*
X60260D01*
X60360Y23765D01*
Y23565D01*
X60260Y23465D01*
X60360Y24865D02*
X60160Y24665D01*
X59960D01*
X59760Y24865D01*
X60360Y25165D02*
X59960D01*
Y25265D01*
X60060Y25365D01*
X60360D01*
X60060D01*
X59960Y25465D01*
X60060Y25565D01*
X60360D01*
Y25765D02*
Y25964D01*
Y25865D01*
X59960D01*
Y25765D01*
X60360Y26264D02*
Y26464D01*
Y26364D01*
X59760D01*
Y26264D01*
X60360Y26764D02*
X60160Y26964D01*
X59960D01*
X59760Y26764D01*
X31966Y8640D02*
Y9240D01*
X31666Y8940D01*
X32066D01*
X32266Y9140D02*
X32366Y9240D01*
X32566D01*
X32666Y9140D01*
Y9040D01*
X32566Y8940D01*
X32666Y8840D01*
Y8740D01*
X32566Y8640D01*
X32366D01*
X32266Y8740D01*
Y8840D01*
X32366Y8940D01*
X32266Y9040D01*
Y9140D01*
X32366Y8940D02*
X32566D01*
X32865Y9240D02*
X33265D01*
Y9140D01*
X32865Y8740D01*
Y8640D01*
X33865Y9240D02*
X33465D01*
Y8940D01*
X33665Y9040D01*
X33765D01*
X33865Y8940D01*
Y8740D01*
X33765Y8640D01*
X33565D01*
X33465Y8740D01*
X34865Y8640D02*
X34665Y8840D01*
Y9040D01*
X34865Y9240D01*
X35165Y8640D02*
Y9040D01*
X35265D01*
X35365Y8940D01*
Y8640D01*
Y8940D01*
X35465Y9040D01*
X35565Y8940D01*
Y8640D01*
X35765D02*
X35964D01*
X35865D01*
Y9040D01*
X35765D01*
X36264Y8640D02*
X36464D01*
X36364D01*
Y9240D01*
X36264D01*
X36764Y8640D02*
X36964Y8840D01*
Y9040D01*
X36764Y9240D01*
M02*
